<svg xmlns="http://www.w3.org/2000/svg" viewBox="0 0 25.649 21">
    <defs>
        <style>
            .cls-1{fill:#444343}
        </style>
    </defs>
    <g id="twitter">
        <path id="XMLID_827_" d="M25.066 30.521a9.722 9.722 0 0 1-1.241.452 5.484 5.484 0 0 0 1.116-1.963.414.414 0 0 0-.605-.482 9.763 9.763 0 0 1-2.886 1.14 5.508 5.508 0 0 0-9.36 3.935 5.617 5.617 0 0 0 .045.711 14.1 14.1 0 0 1-9.675-5.133.414.414 0 0 0-.678.053 5.514 5.514 0 0 0 .565 6.338 4.664 4.664 0 0 1-.737-.329.414.414 0 0 0-.61.357v.074A5.526 5.526 0 0 0 3.69 40.4a4.596 4.596 0 0 1-.419-.061.414.414 0 0 0-.472.533 5.5 5.5 0 0 0 4.033 3.691 9.741 9.741 0 0 1-5.207 1.486 9.962 9.962 0 0 1-1.165-.065.414.414 0 0 0-.272.759 14.849 14.849 0 0 0 8.03 2.357 14.285 14.285 0 0 0 11.068-4.861 15.408 15.408 0 0 0 3.835-10.042c0-.151 0-.3-.007-.456a10.7 10.7 0 0 0 2.463-2.609.414.414 0 0 0-.511-.608z" class="cls-1" transform="translate(.002 -28.097)"/>
    </g>
</svg>
